<svg xmlns="http://www.w3.org/2000/svg" viewBox="0 0 640 360" width="640" height="360">
  <!-- 深色背景 + 浅色logo = 在所有主题下都清晰可见 -->
  
  <!-- 深色背景 -->
  <rect width="640" height="360" fill="#1E293B"/>
  
  <!-- VDD Logo (居中，浅灰色) -->
  <!-- 原始 viewBox: 1208x1270, 缩放到适合16:9封面 -->
  <g transform="translate(320, 180) scale(0.12)" opacity="0.3">
    <!-- 将logo居中：translate(-604, -635) 是原始宽高的一半 -->
    <g transform="translate(-604, -635)">
      <!-- 外部下载箭头形状 -->
      <path d="M923.73 0C967.913 0.00017524 1003.73 35.8173 1003.73 80V712.5H1157.36C1204.25 712.5 1225.35 771.234 1189.18 801.071L635.547 1257.75C617.073 1272.99 590.387 1272.99 571.913 1257.75L438.224 1147.48C424.805 1128.15 371.228 981.454 476.333 918.912C479.81 916.843 482.889 914.762 485.598 912.68L948.029 613.101C984.538 589.448 984.529 536.019 948.013 512.378L413.329 166.23C373.409 140.387 320.725 169.04 320.723 216.596L320.696 898.822C320.537 900.901 320.458 903.043 320.466 905.247C320.895 1020.8 382.068 1098.52 430.33 1140.96L18.2822 801.07C-17.8881 771.233 3.21056 712.5 50.0995 712.5H203.73V80C203.73 35.8173 239.548 0.000106346 283.73 0H923.73Z" fill="#E2E8F0"/>
      <!-- 内部播放三角形 -->
      <path d="M779.643 525.605C811.693 545.078 811.693 591.595 779.642 611.068L507.58 776.363C474.259 796.608 431.618 772.62 431.618 733.632L431.618 403.041C431.618 364.053 474.26 340.065 507.58 360.31L779.643 525.605Z" fill="#E2E8F0"/>
    </g>
  </g>
  
  <!-- VDD 文字 -->
  <text x="320" y="310" 
        font-family="Arial, sans-serif" 
        font-size="24" 
        font-weight="300"
        fill="#CBD5E1" 
        opacity="0.6"
        text-anchor="middle">VDD</text>
</svg>
